<svg xmlns="http://www.w3.org/2000/svg" viewBox="0 0 209 209"><g transform="translate(0,209) scale(0.1,-0.1)" fill="#000"><path d="M511 1576 c-8 -9 -10 -159 -9 -537 l3 -524 529 -3 c382 -1 533 1 542 9 19 15 20 369 2 387 -8 8 -60 12 -170 12 l-158 0 0 158 c0 110 -4 162 -12 170 -8 8 -59 12 -165 12 l-153 0 0 153 c0 106 -4 157 -12 165 -18 18 -382 17 -397 -2z m329 -191 l0 -125 -130 0 -130 0 0 125 0 125 130 0 130 0 0 -125z m-10 -340 l0 -125 -125 0 -125 0 0 125 0 125 125 0 125 0 0 -125z m340 0 l0 -125 -125 0 -125 0 0 125 0 125 125 0 125 0 0 -125z m-340 -330 l0 -125 -125 0 -125 0 0 125 0 125 125 0 125 0 0 -125z m340 0 l0 -125 -125 0 -125 0 0 125 0 125 125 0 125 0 0 -125z m330 0 l0 -125 -125 0 -125 0 0 125 0 125 125 0 125 0 0 -125z"/></g></svg>
