<svg xmlns="http://www.w3.org/2000/svg" viewBox="0 0 24 24" width="100" height="100" fill="none">
    <g transform="translate(-2.496,-2.496) scale(1.213)">
        <g transform="translate(2.43,2.432) scale(0.071)">
            <path d="M 102.74 30.74 C 122.98 16.21 150.42 12.20 173.86 20.84 C 182.52 23.78 190.11 29.01 198.19 33.18 C 189.89 35.06 181.28 35.87 173.36 39.18 C 157.25 45.57 144.41 59.47 139.16 75.97 C 134.85 89.29 135.46 104.13 140.94 117.02 C 146.60 130.63 157.54 141.98 170.99 148.04 C 179.53 152.10 189.03 153.13 198.21 154.95 C 186.32 161.74 174.24 169.25 160.32 170.74 C 159.76 173.11 160.11 175.54 160.09 177.95 C 160.14 184.74 159.59 191.54 160.14 198.31 C 168.99 198.22 177.84 198.31 186.69 198.26 C 186.59 207.23 186.85 216.20 186.56 225.16 C 177.67 225.10 168.79 225.08 159.91 225.17 C 160.23 234.01 159.88 242.86 160.11 251.70 C 151.13 251.79 142.14 251.77 133.16 251.72 C 133.28 242.87 133.19 234.02 133.22 225.17 C 124.32 225.21 115.42 225.15 106.51 225.21 C 106.43 216.24 106.50 207.27 106.48 198.30 C 115.39 198.39 124.30 198.31 133.21 198.35 C 133.22 189.12 133.18 179.88 133.23 170.65 C 113.56 166.89 95.55 155.32 84.10 138.88 C 72.92 123.13 68.00 103.08 70.65 83.95 C 73.30 62.76 85.29 43.01 102.74 30.74 M 101.87 71.68 C 95.75 84.06 94.98 98.97 99.90 111.88 C 104.15 123.69 113.12 133.47 124.08 139.45 C 115.39 126.65 110.03 111.53 109.68 96.00 C 109.22 79.27 114.58 62.69 123.98 48.92 C 114.47 53.92 106.58 62.01 101.87 71.68 Z" style="fill: #e5e7eb" />
        </g>
    </g>
</svg>
