<svg xmlns="http://www.w3.org/2000/svg" viewBox="0 0 100 100">
  <defs>
    <mask id="kefer-mark-cutout">
      <rect width="100" height="100" rx="22" fill="#fff"/>
      <g transform="translate(8,82) scale(0.044,-0.044)" fill="#000" stroke="none">
        <path d="M310 635 c0 -48 2 -55 20 -55 18 0 20 7 20 55 0 48 -2 55 -20 55 -18 0 -20 -7 -20 -55z"/>
        <path d="M770 370 l0 -240 45 0 44 0 3 99 3 99 85 -99 85 -99 63 0 64 0 -41 48 c-22 26 -69 81 -104 121 l-64 75 88 110 c49 61 89 114 89 118 0 5 -24 8 -54 8 l-54 0 -81 -101 -81 -102 0 102 0 101 -45 0 -45 0 0 -240z"/>
        <path d="M297 563 c-4 -3 -7 -16 -7 -28 0 -18 -74 -210 -85 -223 -7 -8 -45 79 -45 103 0 20 -5 25 -26 25 -25 0 -25 -2 -19 -42 13 -83 64 -146 142 -177 33 -13 131 -11 164 3 12 5 23 -9 47 -64 24 -54 36 -70 51 -70 12 0 21 4 21 9 0 13 -160 393 -171 407 -5 6 -6 13 -3 17 3 3 1 15 -6 26 -10 20 -49 29 -63 14z m53 -67 c0 -9 -30 -14 -35 -6 -4 6 3 10 14 10 12 0 21 -2 21 -4z m36 -140 c38 -88 37 -90 -28 -101 -44 -8 -108 10 -108 30 0 7 9 35 21 62 11 26 25 58 30 71 6 16 16 22 30 20 15 -2 30 -24 55 -82z"/>
        <path d="M142 157 c-27 -65 -27 -67 2 -67 19 0 27 10 43 53 15 37 17 54 9 59 -23 15 -33 7 -54 -45z"/>
      </g>
    </mask>
  </defs>
  <rect width="100" height="100" rx="22" fill="#000" mask="url(#kefer-mark-cutout)"/>
</svg>
