<svg xmlns="http://www.w3.org/2000/svg" viewBox="0 0 209 209"><g transform="translate(0,209) scale(0.1,-0.1)" fill="#000"><path d="M652 1490 c-80 -37 -132 -119 -132 -207 0 -151 151 -262 293 -215 166 54 211 279 78 392 -65 56 -160 68 -239 30z m165 -86 c39 -29 53 -59 53 -113 0 -54 -14 -84 -53 -113 -40 -30 -114 -30 -154 0 -39 29 -53 59 -53 113 0 54 14 84 53 113 40 30 114 30 154 0z"/><path d="M1410 1494 c-83 -36 -140 -126 -140 -220 0 -154 155 -265 300 -214 166 58 207 285 70 393 -63 49 -157 67 -230 41z m162 -94 c70 -54 74 -166 9 -225 -28 -25 -43 -30 -87 -30 -47 0 -58 4 -90 35 -33 31 -38 42 -42 93 -4 52 -1 62 24 93 39 45 59 53 114 49 26 -2 58 -9 72 -15z"/><path d="M533 1009 c-84 -16 -171 -85 -212 -169 -27 -55 -31 -73 -31 -146 l0 -84 45 0 45 0 0 68 c0 82 19 127 75 177 88 80 199 86 296 18 73 -52 99 -104 99 -201 l0 -72 45 0 45 0 0 89 c0 76 -4 96 -28 145 -30 62 -89 123 -148 153 -63 32 -159 41 -231 22z"/><path d="M1298 1006 c-76 -20 -118 -45 -169 -100 -64 -69 -84 -125 -84 -238 l0 -88 45 0 45 0 0 72 c0 97 26 149 99 201 97 68 208 62 296 -18 56 -50 75 -95 75 -177 l0 -68 45 0 45 0 0 84 c0 73 -4 91 -31 146 -38 79 -112 143 -193 166 -73 21 -109 22 -173 4z"/></g></svg>
